<svg width="68" height="109" viewBox="0 0 68 109" fill="none" xmlns="http://www.w3.org/2000/svg">
<rect width="68" height="109" fill="#1F1919"/>
<g filter="url(#filter0_d_0_1)">
<rect x="-148" y="-287" width="1455" height="1582" fill="#314648"/>
<rect x="-147.5" y="-286.5" width="1454" height="1581" stroke="black"/>
<path d="M11.7784 100.168C10.7525 101.287 9.7232 102.037 8.69059 102.416C7.65865 102.869 6.91834 102.839 6.46968 102.325C6.09568 101.884 6.16299 101.144 6.6716 100.103L42.5777 19.8553L45.8725 15.9403C48.587 13.3257 50.1376 12.9417 50.5243 14.7882L67.896 94.5545C68.05 95.2191 67.7623 96.1468 67.0331 97.3374C66.3038 98.528 65.3512 99.5727 64.1753 100.471C63.074 101.443 62.0431 102.008 61.0825 102.164C60.1965 102.394 59.6765 102.177 59.5225 101.512L54.076 76.1417C54.002 76.1423 53.891 76.1433 53.743 76.1447L23.4412 76.4186L14.1912 96.927C13.6833 98.0417 12.879 99.122 11.7784 100.168ZM52.2238 67.7221L44.004 30.2768L27.2498 67.9478L52.2238 67.7221Z" fill="#FFE54F"/>
<line y1="-0.5" x2="88.4644" y2="-0.5" transform="matrix(0.604193 -0.796838 0.724905 0.688849 -36.7224 89)" stroke="url(#paint0_linear_0_1)"/>
<line y1="-0.5" x2="102.401" y2="-0.5" transform="matrix(-0.793672 -0.608345 0.521758 -0.853094 98 80.8033)" stroke="url(#paint1_linear_0_1)"/>
<line y1="-0.5" x2="172.728" y2="-0.5" transform="matrix(0.574379 -0.81859 0.750951 0.660359 -15.1228 130.393)" stroke="url(#paint2_linear_0_1)"/>
<line y1="-0.5" x2="152.483" y2="-0.5" transform="matrix(-0.773081 -0.634307 0.547746 -0.836645 66.8821 139)" stroke="url(#paint3_linear_0_1)"/>
</g>
<defs>
<filter id="filter0_d_0_1" x="-152" y="-287" width="1463" height="1590" filterUnits="userSpaceOnUse" color-interpolation-filters="sRGB">
<feFlood flood-opacity="0" result="BackgroundImageFix"/>
<feColorMatrix in="SourceAlpha" type="matrix" values="0 0 0 0 0 0 0 0 0 0 0 0 0 0 0 0 0 0 127 0" result="hardAlpha"/>
<feOffset dy="4"/>
<feGaussianBlur stdDeviation="2"/>
<feComposite in2="hardAlpha" operator="out"/>
<feColorMatrix type="matrix" values="0 0 0 0 0 0 0 0 0 0 0 0 0 0 0 0 0 0 0.25 0"/>
<feBlend mode="normal" in2="BackgroundImageFix" result="effect1_dropShadow_0_1"/>
<feBlend mode="normal" in="SourceGraphic" in2="effect1_dropShadow_0_1" result="shape"/>
</filter>
<linearGradient id="paint0_linear_0_1" x1="44.2322" y1="0" x2="44.2322" y2="1" gradientUnits="userSpaceOnUse">
<stop stop-color="white"/>
<stop offset="1"/>
</linearGradient>
<linearGradient id="paint1_linear_0_1" x1="51.2004" y1="0" x2="51.2004" y2="1" gradientUnits="userSpaceOnUse">
<stop stop-color="white"/>
<stop offset="1"/>
</linearGradient>
<linearGradient id="paint2_linear_0_1" x1="86.364" y1="0" x2="86.364" y2="1" gradientUnits="userSpaceOnUse">
<stop stop-color="white"/>
<stop offset="1"/>
</linearGradient>
<linearGradient id="paint3_linear_0_1" x1="76.2417" y1="0" x2="76.2417" y2="1" gradientUnits="userSpaceOnUse">
<stop stop-color="white"/>
<stop offset="1"/>
</linearGradient>
</defs>
</svg>
