<svg width="321" height="113" viewBox="0 0 321 113" fill="none" xmlns="http://www.w3.org/2000/svg">
<rect width="321" height="113" fill="#1F1919"/>
<g filter="url(#filter0_d_0_1)">
<rect x="-152" y="-885" width="1455" height="1582" fill="#314648"/>
<rect x="-151.5" y="-884.5" width="1454" height="1581" stroke="black"/>
<path d="M1.84054 95.9885C-0.971342 96.0139 -3.01027 95.5883 -4.27625 94.7117C-5.54222 93.8351 -6.29089 92.8799 -6.52224 91.8459C-6.82759 90.8126 -6.98261 90.037 -6.98729 89.519C-6.92199 88.5564 -6.48503 87.7754 -5.67642 87.1761C-4.9418 86.5774 -4.09351 86.2737 -3.13155 86.265C-2.53957 86.2597 -2.02025 86.403 -1.5736 86.695C-1.12761 86.913 -0.900936 87.4289 -0.893578 88.2429C-0.88689 88.9829 -1.1412 89.5032 -1.6565 89.8039C-2.1718 90.1045 -2.72544 90.2575 -3.31742 90.2629C-3.8354 90.2676 -4.28005 90.1976 -4.65137 90.0529C-5.09669 89.909 -5.31935 89.837 -5.31935 89.837C-5.30129 91.8349 -4.54928 93.1601 -3.06332 93.8127C-1.57736 94.4653 0.0905783 94.7833 1.9405 94.7665C4.82639 94.7405 7.77891 93.8997 10.7981 92.2444C13.8912 90.5884 17.0537 88.4137 20.2855 85.7204C23.5166 82.953 26.819 79.8891 30.1928 76.5284C33.6399 73.0931 37.161 69.6572 40.7561 66.2205C44.6445 62.4852 48.4962 58.7873 52.3113 55.1266C56.1997 51.3913 59.9434 48.0274 63.5425 45.0347C67.1416 42.0421 70.4871 39.6437 73.5789 37.8397C76.6707 36.0357 79.4376 35.1226 81.8795 35.1006C82.6934 35.0932 83.0278 35.2382 82.8824 35.5355C82.8111 35.8322 82.2212 36.0595 81.1125 36.2175C78.5267 36.6849 75.6885 37.8946 72.598 39.8466C69.5808 41.724 66.3837 44.158 63.0066 47.1486C59.6288 50.0653 56.1427 53.2789 52.5483 56.7896C49.0272 60.2255 45.4325 63.6992 41.7641 67.2105C38.3896 70.4971 34.9785 73.8211 31.5308 77.1824C28.157 80.543 24.7809 83.6446 21.4025 86.4873C18.098 89.3293 14.7886 91.6163 11.4741 93.3483C8.23359 95.0797 5.02241 95.9597 1.84054 95.9885ZM35.982 90.6847C35.5394 90.8367 35.0224 90.9524 34.4311 91.0317C33.9131 91.0364 33.7634 90.8528 33.9821 90.4808C34.2007 90.1088 34.602 89.4761 35.186 88.5828C35.8432 87.6148 36.4249 86.4625 36.9308 85.1259C37.5107 83.7886 37.7943 82.417 37.7816 81.011C37.7649 79.1611 37.4129 77.0552 36.7255 74.6933C36.1114 72.2568 35.0911 69.8979 33.6644 67.6167C32.3117 65.3348 30.4817 63.4643 28.1745 62.0051C25.9405 60.4712 23.1956 59.719 19.9397 59.7484C17.7938 59.7678 15.9486 60.3025 14.404 61.3525C12.9334 62.4019 11.7978 63.6702 10.9972 65.1575C10.27 66.5701 9.91237 67.9424 9.92441 69.2743C9.9505 72.1602 10.8262 74.8904 12.5516 77.4649C14.3509 80.0388 17.0338 82.1236 20.6004 83.7194C24.1663 85.2413 28.5762 85.9784 33.8299 85.9309C39.6017 85.8788 44.7725 84.833 49.3422 82.7936C53.912 80.7542 57.7364 78.1295 60.8155 74.9196C63.8946 71.7096 66.0474 68.36 67.274 64.8708C67.6339 63.7575 67.9266 63.3848 68.1519 63.7528C68.4506 64.0461 68.6012 64.3408 68.6039 64.6368C68.6266 67.1527 67.7987 69.7133 66.1202 72.3185C64.4417 74.9238 62.0585 77.3504 58.9707 79.5984C55.8823 81.7725 52.3091 83.5438 48.2513 84.9126C44.1935 86.2813 39.7597 86.9874 34.9499 87.0309C29.9921 87.0757 25.398 86.4142 21.1674 85.0464C17.0109 83.6779 13.6253 81.6364 11.0107 78.9219C8.47001 76.2068 7.1823 72.9253 7.14752 69.0774C7.12411 66.4875 8.17566 64.1099 10.3022 61.9446C12.502 59.7047 15.7109 58.5656 19.9287 58.5275C23.4805 58.4954 26.4478 59.2826 28.8304 60.8891C31.287 62.495 33.266 64.4752 34.7673 66.8297C36.2687 69.1842 37.363 71.5424 38.0504 73.9043C38.7378 76.2662 39.0885 78.2241 39.1025 79.778C39.1179 81.48 38.9113 83.1839 38.4827 84.8899C38.0535 86.5218 37.5849 87.8951 37.0769 89.0097C36.6423 90.0497 36.2773 90.608 35.982 90.6847ZM29.4764 95.5167C29.5497 95.442 30.2817 94.5474 31.6722 92.8327C33.0628 91.1181 34.8923 88.8445 37.1608 86.0118C39.4293 83.1792 41.9908 80.0109 44.8452 76.507C47.699 72.9291 50.6631 69.2761 53.7375 65.5482C56.812 61.8202 59.8134 58.204 62.7418 54.6993C65.7436 51.1201 68.4897 47.9131 70.9802 45.0785C73.544 42.1692 75.6692 39.8559 77.3557 38.1386C79.1163 36.4206 80.2552 35.5223 80.7725 35.4436C81.1412 35.2922 81.4742 35.2892 81.7715 35.4346C82.0688 35.5799 81.9972 35.8395 81.5565 36.2135C81.2625 36.4382 80.2376 37.6685 78.4818 39.9045C76.7252 42.0664 74.4941 44.9357 71.7883 48.5123C69.1558 52.0143 66.2677 55.8885 63.124 60.1351C60.0536 64.307 56.9831 68.479 53.9127 72.6509C50.8416 76.7488 48.0269 80.5484 45.4684 84.0497C42.9833 87.4763 40.9361 90.2329 39.3269 92.3195C37.7917 94.4055 36.9871 95.4488 36.9131 95.4495C36.6164 95.3781 36.0978 95.3088 35.3572 95.2415C34.6905 95.1735 34.0242 95.1426 33.3582 95.1486C32.6923 95.1546 31.9156 95.1986 31.0283 95.2807C30.2157 95.436 29.6984 95.5147 29.4764 95.5167ZM68.9264 94.2721C66.8545 94.2908 65.4072 93.8229 64.5845 92.8683C63.7612 91.8397 63.3398 90.2524 63.3204 88.1065C63.3004 85.8866 64.0183 83.438 65.4741 80.7607C66.93 78.0834 68.8682 75.5498 71.2887 73.1598C73.7825 70.6952 76.5763 68.6719 79.6702 67.0898C82.764 65.5078 85.9388 64.7021 89.1947 64.6727C90.9706 64.6566 92.1949 65.0155 92.8676 65.7495C93.6136 66.4088 93.9909 67.2194 93.9996 68.1814C94.0823 69.1427 93.8677 69.9586 93.3557 70.6293C93.3557 70.6293 93.1357 70.8533 92.6958 71.3013C92.3298 71.7486 91.9641 72.2329 91.5988 72.7543C91.2329 73.2016 91.0499 73.4252 91.0499 73.4252C92.5064 70.822 93.0077 68.9674 92.5537 67.8614C92.173 66.6808 91.1317 66.0982 89.4297 66.1136C88.1718 66.125 86.5862 66.7313 84.673 67.9327C82.8338 69.1333 80.8499 70.7053 78.7214 72.6486C76.6668 74.5913 74.7246 76.6809 72.8948 78.9176C71.0649 81.1542 69.5674 83.3138 68.4022 85.3964C67.3109 87.4784 66.772 89.2593 66.7854 90.7393C66.7921 91.4792 67.0561 92.0319 67.5774 92.3972C68.0987 92.7625 68.7664 92.9415 69.5803 92.9341C70.6903 92.9241 71.9812 92.4684 73.4531 91.567C74.9251 90.6657 76.432 89.542 77.9739 88.196C79.5158 86.85 80.9467 85.5051 82.2666 84.1611C83.5865 82.8171 84.6491 81.6604 85.4543 80.6911C86.3336 79.7211 86.8096 79.1618 86.8822 79.0131C87.1749 78.6405 88.0148 77.4118 89.402 75.3272C90.8632 73.2419 92.6897 70.6353 94.8815 67.5074C97.0734 64.3794 99.4108 60.9912 101.894 57.3426C104.45 53.6193 106.97 49.9334 109.453 46.2848C111.936 42.5622 114.236 39.1743 116.355 36.121C118.473 33.0677 120.19 30.5731 121.504 28.6371C122.819 26.7012 123.549 25.6585 123.696 25.5092C124.439 25.8725 125.145 26.1251 125.812 26.2671C126.553 26.3344 127.662 26.2874 129.141 26.126C128.995 26.3493 128.118 27.6153 126.511 29.9239C124.903 32.1586 122.821 35.1005 120.264 38.7498C117.707 42.399 114.93 46.3833 111.935 50.7025C108.94 55.0218 105.908 59.3414 102.839 63.6613C99.844 67.9805 97.0679 71.9648 94.5108 75.6141C91.9537 79.2633 89.8715 82.2423 88.2643 84.5509C86.6565 86.7855 85.7795 88.0145 85.6335 88.2378C85.3416 88.6845 85.0139 89.2794 84.6506 90.0228C84.3607 90.6914 84.2184 91.3217 84.2237 91.9137C84.2291 92.5057 84.5277 92.799 85.1197 92.7936C87.3396 92.7736 89.5168 92.1249 91.6514 90.8475C93.8593 89.4955 95.9168 87.8858 97.824 86.0185C99.8052 84.1505 101.528 82.3589 102.993 80.6436C104.457 78.8543 105.628 77.4746 106.507 76.5047L107.401 77.1626C106.597 78.2059 105.389 79.6599 103.778 81.5245C102.166 83.3892 100.297 85.2932 98.168 87.2365C96.1128 89.1051 93.9443 90.7158 91.6624 92.0685C89.3806 93.4211 87.1667 94.1072 85.0207 94.1266C83.6148 94.1393 82.5395 93.89 81.7949 93.3787C81.0509 92.9414 80.6752 92.3158 80.6678 91.5018C80.6591 90.5399 80.9824 89.4639 81.6377 88.2739C82.367 87.0833 83.1339 85.9663 83.9385 84.923C84.7424 83.8057 85.3274 83.0234 85.6934 82.576C85.6934 82.576 85.6194 82.5767 85.4714 82.578C85.3967 82.5047 85.3594 82.468 85.3594 82.468C85.2861 82.5427 84.6998 83.177 83.6005 84.371C82.5753 85.5643 81.2187 86.9457 79.5308 88.515C77.9162 90.0096 76.1894 91.3573 74.3501 92.558C72.5102 93.6846 70.7023 94.256 68.9264 94.2721ZM147.359 93.5631C145.732 93.5778 144.434 93.2565 143.466 92.5993C142.498 91.942 142.009 91.0954 142 90.0594C141.988 88.7275 142.492 87.2428 143.513 85.6055C144.534 83.8942 145.776 82.1069 147.239 80.2436C148.776 78.3797 150.277 76.59 151.742 74.8747C153.28 73.0848 154.56 71.4821 155.583 70.0668C156.607 68.6515 157.114 67.4999 157.106 66.6119C157.101 66.0199 156.949 65.6143 156.651 65.395C156.353 65.1756 155.834 65.0693 155.094 65.076C153.984 65.0861 152.51 65.6914 150.671 66.8921C148.905 68.0181 146.921 69.5901 144.719 71.6081C142.59 73.5514 140.39 75.7544 138.118 78.217C135.92 80.605 133.796 83.0663 131.747 85.6009C129.698 88.1355 127.943 90.5195 126.483 92.7528C125.593 92.4648 124.593 92.3628 123.483 92.4469C122.374 92.5309 121.191 92.6896 119.936 92.923C121.618 90.7617 123.521 88.3764 125.643 85.7671C127.839 83.0831 129.924 80.4742 131.9 77.9402C133.875 75.4062 135.519 73.1343 136.833 71.1243C138.146 69.0404 138.799 67.5174 138.79 66.5555C138.785 66.0375 138.56 65.7065 138.115 65.5625C137.743 65.3439 137.187 65.2379 136.447 65.2446C134.893 65.2586 132.904 66.2016 130.478 68.0736C128.053 69.9456 125.485 72.337 122.773 75.2476C120.06 78.0842 117.387 81.1055 114.751 84.3115C112.19 87.4427 109.922 90.3124 107.947 92.9203C107.205 92.705 106.316 92.602 105.28 92.6114C104.243 92.5468 102.987 92.7061 101.51 93.0895C104.211 88.9949 106.877 85.1227 109.509 81.4727C112.213 77.7481 114.441 74.5459 116.193 71.8659C118.019 69.1853 118.928 67.401 118.92 66.5131C118.918 66.2911 118.842 66.1437 118.694 66.0711C118.618 65.9238 118.47 65.8511 118.248 65.8531C117.508 65.8598 116.478 66.5721 115.159 67.9901C113.914 69.4074 112.596 71.0104 111.206 72.799C109.816 74.5877 108.572 76.116 107.474 77.384L106.469 76.727C107.201 75.9064 108.079 74.8254 109.103 73.4841C110.127 72.0688 111.224 70.6898 112.396 69.3471C113.641 67.9298 114.889 66.7345 116.138 65.7612C117.387 64.7878 118.604 64.2958 119.788 64.2851C120.676 64.2771 121.418 64.5294 122.015 65.042C122.685 65.48 123.023 66.0689 123.03 66.8089C123.038 67.7709 122.752 68.8465 122.171 70.0358C121.589 71.1511 120.787 72.4534 119.764 73.9427C118.741 75.358 117.571 76.9227 116.254 78.6366C115.012 80.3499 113.697 82.2489 112.31 84.3335L112.536 84.7755C114.001 83.2082 115.503 81.4925 117.04 79.6286C118.651 77.7639 120.3 75.936 121.986 74.1447C123.672 72.3533 125.359 70.71 127.048 69.2147C128.736 67.7194 130.464 66.5197 132.232 65.6157C134 64.7117 135.735 64.252 137.437 64.2366C139.213 64.2205 140.438 64.6535 141.112 65.5354C141.786 66.4174 142.127 67.2653 142.134 68.0793C142.145 69.2632 141.933 70.4492 141.5 71.6372C141.067 72.8251 140.522 73.9771 139.866 75.0931C139.21 76.1351 138.552 77.103 137.894 77.997C137.236 78.817 136.65 79.4883 136.136 80.011C135.623 80.5336 135.33 80.8693 135.258 81.018L134.587 80.469C135.1 79.9464 135.906 79.051 137.004 77.7831C138.103 76.5151 139.386 75.1344 140.852 73.6411C142.392 72.0731 144.007 70.5785 145.696 69.1571C147.384 67.6618 149.076 66.4625 150.769 65.5591C152.463 64.5818 154.086 64.0861 155.64 64.072C157.49 64.0553 158.752 64.5249 159.427 65.4809C160.175 66.3622 160.552 67.1728 160.559 67.9127C160.574 69.5407 160.072 71.3583 159.054 73.3656C158.036 75.2989 156.759 77.2715 155.223 79.2834C153.686 81.2214 152.149 83.0484 150.61 84.7644C149.071 86.4803 147.79 87.935 146.764 89.1283C145.738 90.2476 145.227 90.9553 145.229 91.2513C145.235 91.9172 146.015 92.2432 147.569 92.2291C149.567 92.2111 151.56 91.5641 153.546 90.288C155.607 89.0114 157.554 87.4767 159.388 85.6841C161.221 83.8174 162.869 81.9894 164.333 80.2001C165.871 78.3362 167.115 76.8819 168.068 75.8372L168.962 76.4951C168.083 77.4651 166.838 78.8824 165.226 80.7471C163.689 82.6111 161.931 84.551 159.951 86.567C157.97 88.509 155.913 90.1556 153.779 91.507C151.645 92.8583 149.505 93.5437 147.359 93.5631ZM165.647 93.3978C164.611 93.4072 163.461 93.1215 162.198 92.5409C160.861 92.035 160.187 91.1531 160.176 89.8951C160.162 88.3412 160.847 86.3739 162.232 83.9933C163.616 81.6127 165.333 79.1551 167.382 76.6204C169.357 74.0865 171.297 71.7008 173.201 69.4635C175.105 67.2262 176.532 65.4743 177.482 64.2076C178.297 64.2743 179.259 64.3026 180.369 64.2925C181.553 64.2818 182.589 64.2355 183.476 64.1534C182.452 65.4208 181.097 67.0241 179.413 68.9634C177.802 70.902 176.082 72.9896 174.252 75.2263C172.495 77.3882 170.776 79.5129 169.092 81.6002C167.483 83.6868 166.168 85.5488 165.147 87.1861C164.125 88.8234 163.618 90.012 163.625 90.752C163.629 91.2699 163.855 91.6379 164.301 91.8559C164.747 92.0739 165.488 92.1782 166.524 92.1688C168.3 92.1528 170.255 91.4691 172.388 90.1177C174.596 88.6917 176.727 87.0074 178.781 85.0647C180.836 83.1221 182.669 81.2924 184.282 79.5758C185.894 77.7852 187.029 76.4798 187.687 75.6599L188.582 76.4288C187.923 77.1748 186.788 78.4801 185.177 80.3447C183.639 82.1347 181.769 84.0387 179.567 86.0567C177.439 88.074 175.161 89.7967 172.731 91.2247C170.376 92.652 168.015 93.3764 165.647 93.3978ZM187.507 55.6807C186.619 55.6887 185.951 55.4357 185.502 54.9218C185.053 54.3338 184.825 53.6698 184.818 52.9299C184.81 52.1159 185.247 51.2609 186.127 50.3649C187.007 49.4689 187.928 49.0166 188.89 49.0079C189.925 48.9985 190.668 49.2878 191.117 49.8758C191.566 50.3898 191.793 50.9057 191.797 51.4237C191.808 52.5337 191.373 53.5366 190.493 54.4326C189.612 55.2546 188.617 55.6706 187.507 55.6807ZM187.562 77.6591C187.269 77.9577 187.047 77.9967 186.897 77.7761C186.747 77.4814 186.707 77.1858 186.778 76.8891C188.025 75.6198 189.233 74.1288 190.401 72.4162C191.644 70.7029 192.665 69.1026 193.466 67.6153C194.34 66.1273 194.849 65.1237 194.993 64.6044C195.141 64.603 195.362 64.49 195.656 64.2654C196.024 64.04 196.356 63.963 196.653 64.0343C196.583 64.553 196.477 65.035 196.333 65.4803C196.263 65.9249 196.525 66.3296 197.121 66.6942C197.716 67.0589 198.94 67.4178 200.794 67.7711C202.647 68.1243 205.462 68.5059 209.24 68.9158C209.611 68.9864 209.871 69.1321 210.021 69.3527C210.245 69.4987 210.136 69.7587 209.695 70.1327C208.299 71.2554 206.758 72.6754 205.072 74.3927C203.385 76.11 201.736 77.938 200.126 79.8766C198.589 81.7406 197.31 83.5652 196.29 85.3505C195.344 87.1351 194.877 88.6194 194.887 89.8034C194.899 91.1353 195.497 91.7959 196.681 91.7852C198.161 91.7718 199.821 91.1648 201.66 89.9641C203.573 88.7628 205.484 87.3025 207.393 85.5832C209.301 83.7898 211.061 81.9979 212.672 80.2072C214.358 78.3419 215.75 76.8123 216.849 75.6183L217.743 76.2762C216.717 77.3215 215.398 78.7765 213.786 80.6412C212.175 82.5058 210.342 84.4094 208.288 86.3521C206.307 88.2201 204.175 89.8304 201.893 91.1831C199.611 92.4618 197.248 93.1122 194.807 93.1342C193.401 93.1469 192.14 92.8253 191.024 92.1694C189.908 91.5874 189.343 90.4825 189.329 88.8546C189.315 87.3006 189.966 85.6667 191.282 83.9527C192.599 82.2387 194.249 80.5218 196.231 78.8018C198.213 77.0078 200.27 75.3241 202.402 73.7508C204.607 72.1028 206.554 70.6051 208.244 69.2578L209.03 70.2497C208.288 69.9604 206.99 69.7131 205.138 69.5079C203.286 69.2286 201.359 68.876 199.357 68.4501C197.354 67.9502 195.609 67.2999 194.122 66.4993C192.708 65.6981 191.995 64.5945 191.983 63.1885C191.976 62.4486 192.264 61.5579 192.847 60.5166C193.503 59.4006 194.386 58.8376 195.495 58.8276C196.531 58.8182 197.236 59.0339 197.61 59.4745C197.984 59.8411 198.173 60.3575 198.179 61.0234C198.183 61.4674 197.822 62.3957 197.095 63.8083C196.367 65.147 195.456 66.7463 194.363 68.6062C193.269 70.3922 192.1 72.1048 190.857 73.7441C189.688 75.3828 188.59 76.6877 187.562 77.6591ZM222.078 92.8877C218.6 92.9192 216.299 92.1629 215.175 90.619C214.05 89.0011 213.48 87.3042 213.464 85.5283C213.436 82.4944 214.188 79.6755 215.718 77.0716C217.248 74.3936 219.225 72.0077 221.648 69.9137C224.071 67.8197 226.573 66.206 229.152 65.0726C231.806 63.8646 234.168 63.2512 236.24 63.2325C237.72 63.2191 238.906 63.4304 239.798 63.8664C240.689 64.2283 241.141 65.0383 241.152 66.2962C241.163 67.4802 240.471 68.7445 239.077 70.0891C237.683 71.4338 235.919 72.7448 233.785 74.0221C231.649 75.2255 229.402 76.3558 227.044 77.4132C224.759 78.3959 222.657 79.1919 220.738 79.8013C218.82 80.4107 217.416 80.7194 216.528 80.7274C216.528 80.7274 216.527 80.5424 216.523 80.1724C216.519 79.7284 216.517 79.5064 216.517 79.5064C217.184 79.5744 218.329 79.342 219.952 78.8094C221.65 78.276 223.53 77.593 225.595 76.7603C227.659 75.8536 229.648 74.8366 231.562 73.7092C233.55 72.5812 235.167 71.3825 236.413 70.1132C237.734 68.8432 238.389 67.6163 238.378 66.4323C238.373 65.8403 238.183 65.324 237.809 64.8834C237.509 64.4421 236.952 64.2251 236.138 64.2325C234.954 64.2432 233.517 64.8482 231.825 66.0475C230.208 67.1722 228.556 68.6672 226.871 70.5325C225.186 72.3978 223.612 74.3731 222.151 76.4584C220.69 78.5437 219.487 80.5526 218.542 82.4852C217.671 84.3432 217.241 85.9011 217.253 87.1591C217.266 88.639 217.72 89.745 218.615 90.4769C219.509 91.2089 220.808 91.5671 222.51 91.5518C225.469 91.525 228.238 90.797 230.815 89.3676C233.466 87.8636 235.855 86.1399 237.984 84.1966C240.112 82.1793 241.908 80.313 243.372 78.5977C244.836 76.8084 245.825 75.6524 246.338 75.1297C246.338 75.1297 246.45 75.2397 246.674 75.4597C246.972 75.679 247.121 75.7887 247.121 75.7887C246.608 76.3853 245.62 77.5783 244.156 79.3676C242.692 81.1569 240.86 83.0976 238.659 85.1895C236.458 87.2815 233.958 89.0802 231.159 90.5855C228.361 92.0909 225.333 92.8583 222.078 92.8877ZM247.235 92.6603C245.163 92.6791 243.715 92.2111 242.893 91.2565C242.069 90.2279 241.648 88.6407 241.629 86.4947C241.609 84.2748 242.326 81.8262 243.782 79.149C245.238 76.4717 247.176 73.9381 249.597 71.5481C252.091 69.0835 254.884 67.0601 257.978 65.4781C261.072 63.8961 264.247 63.0903 267.503 63.0609C269.279 63.0449 270.503 63.4038 271.176 64.1378C271.922 64.797 272.299 65.6077 272.308 66.5696C272.39 67.5309 272.176 68.3469 271.664 69.0175C271.664 69.0175 271.444 69.2415 271.004 69.6895C270.638 70.1369 270.272 70.6212 269.907 71.1425C269.541 71.5898 269.358 71.8135 269.358 71.8135C270.815 69.2102 271.316 67.3556 270.862 66.2497C270.481 65.0691 269.44 64.4865 267.738 64.5018C266.48 64.5132 264.894 65.1196 262.981 66.3209C261.142 67.5216 259.158 69.0936 257.03 71.0369C254.975 72.9796 253.033 75.0692 251.203 77.3058C249.373 79.5425 247.876 81.7021 246.71 83.7847C245.619 85.8666 245.08 87.6476 245.094 89.1275C245.1 89.8675 245.364 90.4201 245.886 90.7854C246.407 91.1507 247.075 91.3297 247.888 91.3224C248.998 91.3123 250.289 90.8566 251.761 89.9553C253.233 89.054 254.74 87.9303 256.282 86.5843C257.824 85.2383 259.255 83.8933 260.575 82.5493C261.895 81.2053 262.957 80.0487 263.762 79.0794C264.642 78.1094 265.118 77.5501 265.19 77.4014C265.483 77.0287 266.323 75.8001 267.71 73.7155C269.171 71.6302 270.998 69.0236 273.19 65.8956C275.382 62.7677 277.719 59.3794 280.202 55.7308C282.759 52.0076 285.278 48.3216 287.761 44.6731C290.244 40.9505 292.544 37.5625 294.663 34.5093C296.781 31.456 298.498 28.9614 299.812 27.0254C301.127 25.0894 301.858 24.0468 302.004 23.8975C302.748 24.2608 303.453 24.5134 304.12 24.6554C304.861 24.7227 305.97 24.6756 307.449 24.5143C307.303 24.7376 306.426 26.0036 304.819 28.3122C303.211 30.5468 301.129 33.4888 298.572 37.138C296.015 40.7873 293.239 44.7715 290.243 49.0908C287.248 53.41 284.216 57.7296 281.147 62.0495C278.152 66.3688 275.376 70.353 272.819 74.0023C270.262 77.6516 268.18 80.6305 266.572 82.9391C264.965 85.1738 264.088 86.4027 263.942 86.6261C263.65 87.0727 263.322 87.6677 262.959 88.411C262.669 89.0797 262.527 89.71 262.532 90.302C262.537 90.8939 262.836 91.1872 263.428 91.1819C265.648 91.1618 267.825 90.5131 269.96 89.2358C272.167 87.8838 274.225 86.2741 276.132 84.4068C278.113 82.5388 279.836 80.7472 281.301 79.0319C282.765 77.2425 283.936 75.8629 284.815 74.8929L285.709 75.5509C284.905 76.5942 283.697 78.0482 282.086 79.9128C280.475 81.7774 278.605 83.6814 276.476 85.6247C274.421 87.4934 272.252 89.104 269.971 90.4567C267.689 91.8094 265.475 92.4954 263.329 92.5148C261.923 92.5276 260.848 92.2783 260.103 91.767C259.359 91.3297 258.983 90.704 258.976 89.8901C258.967 88.9281 259.291 87.8522 259.946 86.6622C260.675 85.4715 261.442 84.3546 262.247 83.3113C263.051 82.1939 263.636 81.4116 264.002 80.9643C264.002 80.9643 263.928 80.965 263.78 80.9663C263.705 80.893 263.668 80.8563 263.668 80.8563C263.594 80.931 263.008 81.5653 261.909 82.7593C260.883 83.9526 259.527 85.3339 257.839 86.9032C256.224 88.3979 254.498 89.7456 252.658 90.9462C250.818 92.0729 249.01 92.6443 247.235 92.6603Z" fill="url(#paint0_linear_0_1)"/>
<line x1="-10.3812" y1="151.676" x2="135.619" y2="-20.3236" stroke="url(#paint1_linear_0_1)"/>
<line x1="357.718" y1="132.413" x2="135.718" y2="-19.5874" stroke="url(#paint2_linear_0_1)"/>
<line x1="48.6068" y1="252.691" x2="319.607" y2="-92.3089" stroke="url(#paint3_linear_0_1)"/>
<line x1="272.704" y1="274.403" x2="-49.2956" y2="38.4033" stroke="url(#paint4_linear_0_1)"/>
</g>
<defs>
<filter id="filter0_d_0_1" x="-156" y="-885" width="1463" height="1590" filterUnits="userSpaceOnUse" color-interpolation-filters="sRGB">
<feFlood flood-opacity="0" result="BackgroundImageFix"/>
<feColorMatrix in="SourceAlpha" type="matrix" values="0 0 0 0 0 0 0 0 0 0 0 0 0 0 0 0 0 0 127 0" result="hardAlpha"/>
<feOffset dy="4"/>
<feGaussianBlur stdDeviation="2"/>
<feComposite in2="hardAlpha" operator="out"/>
<feColorMatrix type="matrix" values="0 0 0 0 0 0 0 0 0 0 0 0 0 0 0 0 0 0 0.25 0"/>
<feBlend mode="normal" in2="BackgroundImageFix" result="effect1_dropShadow_0_1"/>
<feBlend mode="normal" in="SourceGraphic" in2="effect1_dropShadow_0_1" result="shape"/>
</filter>
<linearGradient id="paint0_linear_0_1" x1="0.497129" y1="57.8901" x2="320.484" y2="54.9977" gradientUnits="userSpaceOnUse">
<stop stop-color="#FFE54F"/>
<stop offset="1" stop-color="#EEEEEE"/>
</linearGradient>
<linearGradient id="paint1_linear_0_1" x1="63" y1="66" x2="63.7624" y2="66.6471" gradientUnits="userSpaceOnUse">
<stop stop-color="white"/>
<stop offset="1"/>
</linearGradient>
<linearGradient id="paint2_linear_0_1" x1="247" y1="56" x2="247.565" y2="55.1749" gradientUnits="userSpaceOnUse">
<stop stop-color="white"/>
<stop offset="1"/>
</linearGradient>
<linearGradient id="paint3_linear_0_1" x1="184.5" y1="80.5" x2="185.286" y2="81.1177" gradientUnits="userSpaceOnUse">
<stop stop-color="white"/>
<stop offset="1"/>
</linearGradient>
<linearGradient id="paint4_linear_0_1" x1="112" y1="156" x2="112.591" y2="155.193" gradientUnits="userSpaceOnUse">
<stop stop-color="white"/>
<stop offset="1"/>
</linearGradient>
</defs>
</svg>
